<svg width="35" height="35" viewBox="0 0 35 35" fill="none" xmlns="http://www.w3.org/2000/svg">
<circle cx="17.5" cy="17.5" r="17.5" fill="#CDD1FB"/>
<path d="M8 11.125C8 10.9592 8.06585 10.8003 8.18306 10.6831C8.30027 10.5658 8.45924 10.5 8.625 10.5H10.5C10.6394 10.5 10.7748 10.5467 10.8847 10.6325C10.9945 10.7184 11.0725 10.8385 11.1063 10.9737L11.6125 13H26.125C26.2199 13 26.3136 13.0217 26.3989 13.0633C26.4843 13.105 26.559 13.1655 26.6174 13.2403C26.6758 13.3151 26.7165 13.4023 26.7362 13.4951C26.7559 13.588 26.7542 13.6841 26.7313 13.7762L24.8563 21.2763C24.8225 21.4115 24.7445 21.5316 24.6347 21.6175C24.5248 21.7033 24.3894 21.75 24.25 21.75H13C12.8606 21.75 12.7252 21.7033 12.6153 21.6175C12.5055 21.5316 12.4275 21.4115 12.3938 21.2763L10.0125 11.75H8.625C8.45924 11.75 8.30027 11.6842 8.18306 11.5669C8.06585 11.4497 8 11.2908 8 11.125ZM11.925 14.25L12.55 16.75H14.25V14.25H11.925ZM15.5 14.25V16.75H18V14.25H15.5ZM19.25 14.25V16.75H21.75V14.25H19.25ZM23 14.25V16.75H24.7L25.325 14.25H23ZM24.3875 18H23V20.5H23.7625L24.3875 18ZM21.75 18H19.25V20.5H21.75V18ZM18 18H15.5V20.5H18V18ZM14.25 18H12.8625L13.4875 20.5H14.25V18ZM14.25 24.25C13.9185 24.25 13.6005 24.3817 13.3661 24.6161C13.1317 24.8505 13 25.1685 13 25.5C13 25.8315 13.1317 26.1495 13.3661 26.3839C13.6005 26.6183 13.9185 26.75 14.25 26.75C14.5815 26.75 14.8995 26.6183 15.1339 26.3839C15.3683 26.1495 15.5 25.8315 15.5 25.5C15.5 25.1685 15.3683 24.8505 15.1339 24.6161C14.8995 24.3817 14.5815 24.25 14.25 24.25ZM11.75 25.5C11.75 24.837 12.0134 24.2011 12.4822 23.7322C12.9511 23.2634 13.587 23 14.25 23C14.913 23 15.5489 23.2634 16.0178 23.7322C16.4866 24.2011 16.75 24.837 16.75 25.5C16.75 26.163 16.4866 26.7989 16.0178 27.2678C15.5489 27.7366 14.913 28 14.25 28C13.587 28 12.9511 27.7366 12.4822 27.2678C12.0134 26.7989 11.75 26.163 11.75 25.5ZM23 24.25C22.6685 24.25 22.3505 24.3817 22.1161 24.6161C21.8817 24.8505 21.75 25.1685 21.75 25.5C21.75 25.8315 21.8817 26.1495 22.1161 26.3839C22.3505 26.6183 22.6685 26.75 23 26.75C23.3315 26.75 23.6495 26.6183 23.8839 26.3839C24.1183 26.1495 24.25 25.8315 24.25 25.5C24.25 25.1685 24.1183 24.8505 23.8839 24.6161C23.6495 24.3817 23.3315 24.25 23 24.25ZM20.5 25.5C20.5 24.837 20.7634 24.2011 21.2322 23.7322C21.7011 23.2634 22.337 23 23 23C23.663 23 24.2989 23.2634 24.7678 23.7322C25.2366 24.2011 25.5 24.837 25.5 25.5C25.5 26.163 25.2366 26.7989 24.7678 27.2678C24.2989 27.7366 23.663 28 23 28C22.337 28 21.7011 27.7366 21.2322 27.2678C20.7634 26.7989 20.5 26.163 20.5 25.5Z" fill="#394CFC"/>
</svg>
