<svg width="35" height="35" viewBox="0 0 35 35" fill="none" xmlns="http://www.w3.org/2000/svg">
<circle cx="17.5" cy="17.5" r="17.5" fill="#CDD1FB"/>
<g clip-path="url(#clip0_72_193)">
<path d="M8 14.25C7.99983 15.6966 8.5015 17.0985 9.41944 18.2166C10.3374 19.3347 11.6148 20.0997 13.0338 20.3812C13.1155 19.4858 13.3453 18.6102 13.7137 17.79C12.6188 17.42 11.915 16.58 11.75 15.3875H11.125V14.855H11.7075V14.3125C11.7067 14.2542 11.7083 14.1979 11.7125 14.1437H11.125V13.61H11.7637C12.045 12.05 13.2663 11.125 15.1013 11.125C15.4963 11.125 15.8387 11.1637 16.125 11.2312V12.1475C15.7906 12.0736 15.4487 12.0392 15.1062 12.045C13.9575 12.045 13.1838 12.6275 12.9387 13.61H15.335V14.1437H12.86C12.8567 14.2021 12.8554 14.2633 12.8562 14.3275V14.855H15.335V15.3887H12.9125C13.06 16.1412 13.4975 16.6762 14.1687 16.925C14.8269 15.8349 15.7321 14.9148 16.8112 14.2389C17.8904 13.563 19.1132 13.1502 20.3812 13.0337C20.0747 11.5156 19.2156 10.1653 17.9704 9.24438C16.7252 8.32344 15.1825 7.89741 13.6412 8.04882C12.0999 8.20023 10.6696 8.91831 9.62739 10.0639C8.5852 11.2096 8.0053 12.7012 8 14.25ZM28 21.125C28 22.9484 27.2757 24.697 25.9864 25.9864C24.697 27.2757 22.9484 28 21.125 28C19.3016 28 17.553 27.2757 16.2636 25.9864C14.9743 24.697 14.25 22.9484 14.25 21.125C14.25 19.3016 14.9743 17.5529 16.2636 16.2636C17.553 14.9743 19.3016 14.25 21.125 14.25C22.9484 14.25 24.697 14.9743 25.9864 16.2636C27.2757 17.5529 28 19.3016 28 21.125ZM18.3125 22.7775C18.3988 23.8212 19.245 24.6337 20.7675 24.73V25.5H21.4425V24.725C23.0162 24.6175 23.9375 23.8 23.9375 22.6125C23.9375 21.5312 23.2338 20.975 21.975 20.6875L21.4425 20.5625V18.4675C22.1175 18.5425 22.5475 18.9012 22.65 19.3987H23.835C23.7475 18.3937 22.8612 17.6075 21.4425 17.5212V16.75H20.7675V17.5362C19.4225 17.665 18.5075 18.4512 18.5075 19.5637C18.5075 20.5475 19.1875 21.1737 20.32 21.43L20.7675 21.5362V23.7612C20.075 23.6612 19.6175 23.2912 19.5138 22.7775H18.3125ZM20.7625 20.4087C20.0975 20.2587 19.7375 19.9537 19.7375 19.4937C19.7375 18.9812 20.1262 18.595 20.7675 18.4825V20.4075H20.7612L20.7625 20.4087ZM21.54 21.7137C22.3462 21.895 22.7188 22.1887 22.7188 22.7087C22.7188 23.3012 22.2563 23.7087 21.4438 23.7837V21.6912L21.54 21.7137Z" fill="#394CFC"/>
</g>
<defs>
<clipPath id="clip0_72_193">
<rect width="20" height="20" fill="white" transform="translate(8 8)"/>
</clipPath>
</defs>
</svg>
