<svg width="35" height="35" viewBox="0 0 35 35" fill="none" xmlns="http://www.w3.org/2000/svg">
<circle cx="17.5" cy="17.5" r="17.5" fill="#CDD1FB"/>
<g clip-path="url(#clip0_72_192)">
<path d="M23.17 7.40748C23.4463 7.33836 23.7348 7.33311 24.0134 7.39211C24.2921 7.45112 24.5536 7.57284 24.7782 7.74803C25.0028 7.92322 25.1845 8.14728 25.3096 8.40319C25.4347 8.6591 25.4998 8.94015 25.5 9.22498V10.75H26.125C26.6223 10.75 27.0992 10.9475 27.4508 11.2992C27.8025 11.6508 28 12.1277 28 12.625V23.875C28 24.3723 27.8025 24.8492 27.4508 25.2008C27.0992 25.5524 26.6223 25.75 26.125 25.75H9.875C9.37772 25.75 8.90081 25.5524 8.54917 25.2008C8.19754 24.8492 8 24.3723 8 23.875V12.625C7.99983 12.1423 8.1858 11.6781 8.51922 11.3291C8.85264 10.9801 9.30781 10.7731 9.79 10.7512L23.17 7.40748ZM14.9525 10.75H24.25V9.22498C24.2498 9.13015 24.228 9.03662 24.1863 8.95145C24.1446 8.86629 24.084 8.79174 24.0092 8.73345C23.9344 8.67515 23.8473 8.63464 23.7546 8.61498C23.6618 8.59533 23.5658 8.59704 23.4737 8.61998L14.9525 10.75ZM9.875 12C9.70924 12 9.55027 12.0658 9.43306 12.183C9.31585 12.3003 9.25 12.4592 9.25 12.625V23.875C9.25 24.0407 9.31585 24.1997 9.43306 24.3169C9.55027 24.4341 9.70924 24.5 9.875 24.5H26.125C26.2908 24.5 26.4497 24.4341 26.5669 24.3169C26.6842 24.1997 26.75 24.0407 26.75 23.875V12.625C26.75 12.4592 26.6842 12.3003 26.5669 12.183C26.4497 12.0658 26.2908 12 26.125 12H9.875Z" fill="#394CFC"/>
</g>
<defs>
<clipPath id="clip0_72_192">
<rect width="20" height="20" fill="white" transform="translate(8 7)"/>
</clipPath>
</defs>
</svg>
